<?xml version="1.0" standalone="no"?>
<!DOCTYPE svg PUBLIC "-//W3C//DTD SVG 20010904//EN"
 "http://www.w3.org/TR/2001/REC-SVG-20010904/DTD/svg10.dtd">
<svg version="1.0" xmlns="http://www.w3.org/2000/svg"
 width="682.000000pt" height="518.000000pt" viewBox="0 0 682.000000 518.000000"
 preserveAspectRatio="xMidYMid meet">

<g transform="translate(0.000000,518.000000) scale(0.100000,-0.100000)"
fill="#000000" stroke="none">
<path d="M4880 4965 c19 -19 36 -35 39 -35 3 0 -10 16 -29 35 -19 19 -36 35
-39 35 -3 0 10 -16 29 -35z"/>
<path d="M2685 4628 l0 -298 210 0 211 0 39 -40 c21 -21 43 -36 48 -33 6 3 7
1 3 -5 -3 -6 -2 -13 4 -17 6 -4 10 13 10 44 l0 51 124 0 125 0 -5 148 c-2 81
-4 213 -4 294 l0 148 -382 2 -383 3 0 -297z m675 152 c0 -6 -108 -10 -305 -10
-197 0 -305 4 -305 10 0 6 108 10 305 10 197 0 305 -4 305 -10z m-150 -61 c0
-12 -263 -22 -365 -14 -52 4 -95 10 -95 13 0 4 104 7 230 8 127 0 230 -3 230
-7z m-247 -36 c-7 -2 -19 -2 -25 0 -7 3 -2 5 12 5 14 0 19 -2 13 -5z m17 -23
c0 -6 -43 -10 -110 -10 -67 0 -110 4 -110 10 0 6 43 10 110 10 67 0 110 -4
110 -10z m150 -68 c0 -7 -319 -5 -365 2 -11 2 67 4 173 5 105 0 192 -2 192 -7z"/>
<path d="M3557 4842 l-37 -38 38 -37 38 -37 37 38 37 38 -38 37 -38 37 -37
-38z"/>
<path d="M4365 4569 c-16 -5 -70 -12 -120 -14 -49 -3 -126 -10 -170 -16 -44
-6 -90 -12 -102 -13 -12 -2 -43 -15 -68 -31 -116 -74 -115 -255 2 -317 41 -21
45 -22 54 -6 5 10 19 23 30 29 23 12 119 38 119 32 0 -2 -15 -12 -32 -23 -18
-11 -27 -20 -20 -20 7 0 29 15 49 33 l36 33 36 -18 c23 -12 54 -18 86 -17 82
3 80 4 110 -72 32 -82 30 -110 -16 -181 -44 -69 -93 -108 -133 -108 -42 0 -86
-33 -86 -66 0 -32 35 -100 57 -112 35 -20 82 11 143 93 102 138 132 238 91
305 -26 44 -28 101 -3 123 24 22 45 21 64 0 26 -29 30 -60 17 -117 l-12 -54
38 -52 c20 -28 39 -50 40 -48 6 6 14 116 21 259 5 119 4 155 -10 201 -35 123
-136 203 -221 177z"/>
<path d="M4003 4183 c9 -2 23 -2 30 0 6 3 -1 5 -18 5 -16 0 -22 -2 -12 -5z"/>
<path d="M1317 4172 c-15 -3 -17 -31 -17 -291 0 -223 3 -288 13 -288 6 0 146
-4 310 -8 l297 -8 -1 239 c-1 131 -4 264 -7 294 l-7 55 -286 5 c-157 3 -293 4
-302 2z m513 -71 c0 -13 -109 -21 -301 -21 -209 0 -249 18 -51 23 294 7 352 7
352 -2z m-343 -73 c71 -2 93 -6 93 -17 0 -11 -20 -13 -110 -9 -61 3 -113 8
-116 11 -11 11 8 28 24 23 10 -3 59 -7 109 -8z m193 -75 c0 -10 -40 -13 -165
-13 -145 0 -177 4 -161 21 2 2 77 4 165 4 122 0 161 -3 161 -12z m150 -62 c0
-11 -152 -21 -332 -21 -135 0 -161 4 -141 23 10 10 473 8 473 -2z m-210 -78
c0 -10 -34 -13 -135 -13 -109 0 -135 3 -135 14 0 12 25 14 135 13 100 -2 135
-5 135 -14z"/>
<path d="M4430 4149 c0 -5 5 -7 10 -4 6 3 10 8 10 11 0 2 -4 4 -10 4 -5 0 -10
-5 -10 -11z"/>
<path d="M4097 4093 c-13 -12 -7 -33 8 -33 8 0 15 9 15 20 0 20 -11 26 -23 13z"/>
<path d="M2405 3891 c-46 -11 -72 -28 -99 -64 -28 -36 -56 -107 -56 -141 -1
-13 -14 -29 -33 -41 -52 -33 -80 -117 -81 -240 -1 -92 2 -105 31 -167 17 -37
50 -87 72 -111 l41 -44 0 -101 c0 -101 16 -202 32 -202 5 0 43 20 86 44 42 24
94 50 115 57 50 17 47 39 -8 68 -81 43 -143 130 -179 250 -20 68 -21 117 -2
124 8 3 23 28 32 55 l18 49 30 -18 c31 -18 192 -37 182 -21 -2 4 34 19 80 33
46 15 81 22 77 16 -4 -6 7 -1 24 11 l31 22 23 -47 c32 -62 47 -70 99 -53 24 8
52 13 64 13 61 -5 92 -125 41 -159 -25 -16 -93 -16 -135 0 -12 5 -15 -4 -16
-46 -1 -29 -12 -79 -24 -111 -12 -32 -20 -60 -18 -62 1 -2 55 10 118 25 63 16
131 31 150 34 l35 6 1 73 c1 41 7 91 14 113 21 62 17 209 -8 271 -24 64 -95
165 -165 237 -74 75 -126 92 -340 111 -94 9 -179 17 -187 19 -8 2 -28 1 -45
-3z"/>
<path d="M3260 3650 c0 -5 5 -10 11 -10 5 0 7 5 4 10 -3 6 -8 10 -11 10 -2 0
-4 -4 -4 -10z"/>
<path d="M3490 3509 c0 -5 5 -7 10 -4 6 3 10 8 10 11 0 2 -4 4 -10 4 -5 0 -10
-5 -10 -11z"/>
<path d="M2935 3340 c-3 -6 1 -7 9 -4 18 7 21 14 7 14 -6 0 -13 -4 -16 -10z"/>
<path d="M2995 3340 c3 -5 -3 -10 -14 -10 -11 0 -22 -3 -24 -7 -3 -5 10 -8 28
-8 28 0 32 2 24 18 -5 9 -12 17 -15 17 -3 0 -2 -4 1 -10z"/>
<path d="M1083 3283 c9 -2 25 -2 35 0 9 3 1 5 -18 5 -19 0 -27 -2 -17 -5z"/>
<path d="M1208 3273 c12 -2 30 -2 40 0 9 3 -1 5 -23 4 -22 0 -30 -2 -17 -4z"/>
<path d="M1343 3263 c20 -2 54 -2 75 0 20 2 3 4 -38 4 -41 0 -58 -2 -37 -4z"/>
<path d="M2999 3253 c-13 -16 -12 -17 4 -4 16 13 21 21 13 21 -2 0 -10 -8 -17
-17z"/>
<path d="M2512 3094 c9 -9 21 -15 27 -13 6 2 -2 10 -17 17 -25 11 -25 11 -10
-4z"/>
<path d="M2619 3033 c-13 -16 -12 -17 4 -4 16 13 21 21 13 21 -2 0 -10 -8 -17
-17z"/>
<path d="M2547 3019 c7 -7 15 -10 18 -7 3 3 -2 9 -12 12 -14 6 -15 5 -6 -5z"/>
<path d="M2580 2343 c0 -19 175 -435 178 -422 2 8 22 102 46 209 l42 195 -90
7 c-49 3 -109 9 -133 13 -24 3 -43 3 -43 -2z"/>
<path d="M2010 1979 c-157 -4 -477 -13 -711 -18 -235 -6 -434 -13 -443 -17 -9
-3 -16 -17 -16 -29 0 -21 96 -281 269 -727 34 -87 61 -160 61 -163 0 -3 -149
-5 -331 -5 l-331 0 7 -32 c22 -100 84 -186 160 -223 l56 -28 152 7 153 8 80
-50 c489 -303 1159 -421 1859 -326 258 35 524 96 796 183 252 80 292 86 604
86 285 -1 313 -3 810 -70 445 -60 532 -68 730 -68 172 0 199 2 286 26 117 31
225 80 299 135 59 45 133 135 158 192 20 47 42 141 36 152 -4 5 -825 8 -1915
7 -1050 -2 -1912 0 -1915 4 -4 3 -56 165 -116 359 -195 632 -175 576 -208 593
-32 17 -63 17 -530 4z m-109 -435 c37 -35 46 -82 25 -123 -17 -33 -62 -61 -96
-61 -53 0 -110 57 -110 110 0 33 27 78 58 95 37 21 89 12 123 -21z m782 -531
c-95 -2 -251 -2 -345 0 -95 1 -18 3 172 3 190 0 267 -2 173 -3z"/>
<path d="M73 284 c-24 -10 -14 -42 17 -53 33 -11 39 -28 14 -38 -11 -4 -22 1
-30 12 -12 17 -14 17 -14 2 0 -24 48 -34 67 -14 14 13 14 19 3 31 -7 9 -18 16
-25 16 -7 0 -18 7 -25 15 -17 21 14 32 37 14 14 -12 16 -12 11 1 -5 16 -34 23
-55 14z"/>
<path d="M673 235 c0 -33 2 -45 4 -27 2 18 2 45 0 60 -2 15 -4 0 -4 -33z"/>
<path d="M1193 235 c0 -33 2 -50 4 -37 5 27 20 29 28 2 3 -11 11 -20 17 -20 6
0 3 12 -7 26 -14 21 -14 28 -3 42 10 13 8 13 -9 -1 -21 -19 -22 -19 -26 15 -2
18 -4 6 -4 -27z"/>
<path d="M998 267 c-7 -22 7 -80 20 -83 7 -1 8 0 2 3 -12 6 -13 60 -1 65 5 2
3 8 -4 15 -10 9 -14 9 -17 0z"/>
<path d="M154 246 c-11 -28 0 -61 20 -61 27 0 44 30 30 53 -15 22 -43 27 -50
8z m41 -26 c0 -27 -22 -39 -31 -16 -8 22 3 49 19 43 6 -2 12 -14 12 -27z"/>
<path d="M233 225 c2 -36 5 -40 30 -41 25 -1 27 1 26 40 -1 42 -3 41 -13 -7
-9 -37 -29 -30 -38 14 -6 34 -6 34 -5 -6z"/>
<path d="M311 216 c2 -34 3 -36 6 -11 3 17 9 35 14 41 5 7 3 11 -6 11 -11 0
-15 -11 -14 -41z"/>
<path d="M361 238 c-16 -44 21 -77 49 -43 8 9 8 15 2 15 -6 0 -12 -5 -14 -12
-6 -17 -28 0 -28 22 0 25 20 36 32 19 8 -12 9 -11 5 1 -6 25 -36 24 -46 -2z"/>
<path d="M434 246 c-12 -31 0 -61 25 -61 13 0 27 7 29 15 4 13 3 13 -11 2 -9
-8 -21 -11 -27 -7 -19 11 -10 25 16 25 19 0 25 5 22 18 -4 22 -46 29 -54 8z
m41 -6 c3 -5 -3 -10 -15 -10 -12 0 -18 5 -15 10 3 6 10 10 15 10 5 0 12 -4 15
-10z"/>
<path d="M590 240 c-13 -24 3 -60 25 -60 8 0 15 -5 15 -11 0 -7 -9 -9 -21 -6
-17 5 -19 3 -10 -6 21 -21 46 6 49 54 3 41 1 45 -22 47 -17 1 -29 -5 -36 -18z
m41 3 c1 -5 2 -20 3 -35 2 -23 -1 -25 -16 -17 -26 14 -23 59 4 59 4 0 9 -3 9
-7z"/>
<path d="M704 249 c-4 -7 0 -9 13 -5 17 5 20 2 21 -24 0 -21 -4 -30 -15 -30
-9 0 -13 6 -9 15 3 8 1 15 -4 15 -6 0 -10 -9 -10 -20 0 -16 6 -20 30 -18 24 2
30 7 30 24 0 12 -3 29 -6 38 -7 18 -39 21 -50 5z"/>
<path d="M793 253 c19 -5 22 -18 7 -28 -5 -3 -15 -15 -20 -26 -10 -17 -7 -19
22 -18 24 1 27 3 10 6 l-22 4 20 29 c26 37 25 40 -7 39 -17 -1 -21 -3 -10 -6z"/>
<path d="M854 246 c-12 -31 0 -61 25 -61 13 0 27 7 29 15 4 13 3 13 -11 2 -9
-8 -21 -11 -27 -7 -19 11 -10 25 16 25 19 0 25 5 22 18 -4 22 -46 29 -54 8z
m41 -6 c3 -5 -3 -10 -15 -10 -12 0 -18 5 -15 10 3 6 10 10 15 10 5 0 12 -4 15
-10z"/>
<path d="M937 253 c-13 -13 -7 -32 13 -38 27 -9 26 -29 -1 -22 -16 4 -19 3
-11 -5 14 -14 42 -3 42 16 0 8 -9 18 -20 21 -11 3 -20 11 -20 16 0 6 9 7 21 4
15 -5 19 -4 15 4 -8 12 -29 15 -39 4z"/>
<path d="M1044 246 c-11 -28 0 -61 20 -61 27 0 44 30 30 53 -15 22 -43 27 -50
8z m41 -26 c0 -13 -6 -25 -12 -27 -16 -6 -27 21 -19 43 9 23 31 11 31 -16z"/>
<path d="M1121 238 c-16 -44 21 -77 49 -43 8 9 8 15 2 15 -6 0 -12 -5 -14 -12
-6 -17 -28 0 -28 22 0 25 20 36 32 19 8 -12 9 -11 5 1 -6 25 -36 24 -46 -2z"/>
<path d="M1301 238 c-16 -44 21 -77 49 -43 8 9 8 15 2 15 -6 0 -12 -5 -14 -12
-6 -17 -28 0 -28 22 0 25 20 36 32 19 8 -12 9 -11 5 1 -6 25 -36 24 -46 -2z"/>
<path d="M1374 246 c-11 -28 0 -61 20 -61 27 0 44 30 30 53 -15 22 -43 27 -50
8z m41 -26 c0 -13 -6 -25 -12 -27 -16 -6 -27 21 -19 43 9 23 31 11 31 -16z"/>
<path d="M1451 216 l2 -41 6 34 c9 49 31 52 32 4 1 -39 3 -38 13 10 9 39 26
34 26 -8 0 -19 5 -35 11 -35 6 0 9 16 7 38 -3 37 -3 37 -50 38 l-48 1 1 -41z"/>
<path d="M60 85 c0 -30 5 -55 10 -55 6 0 10 25 10 55 0 30 -4 55 -10 55 -5 0
-10 -25 -10 -55z"/>
<path d="M103 85 c0 -33 2 -45 4 -27 2 18 2 45 0 60 -2 15 -4 0 -4 -33z"/>
<path d="M133 85 c0 -33 2 -45 4 -27 2 18 2 45 0 60 -2 15 -4 0 -4 -33z"/>
<path d="M650 121 c0 -14 -5 -18 -19 -14 -13 3 -23 -2 -30 -16 -16 -30 2 -61
34 -59 23 2 25 6 25 55 0 29 -2 53 -5 53 -3 0 -5 -9 -5 -19z m-6 -36 c7 -18
-2 -45 -15 -45 -5 0 -12 7 -15 15 -7 18 2 45 15 45 5 0 11 -7 15 -15z"/>
<path d="M721 89 c-1 -55 0 -56 27 -55 24 1 27 5 27 36 0 28 -4 35 -20 35 -11
0 -23 9 -27 20 -3 12 -6 -4 -7 -36z m44 -19 c0 -13 -6 -25 -12 -27 -16 -6 -27
21 -19 43 9 23 31 11 31 -16z"/>
<path d="M910 86 c0 -31 5 -56 10 -56 6 0 10 12 10 26 0 20 4 25 22 22 14 -2
25 -13 29 -28 5 -16 6 -5 5 30 l-1 55 -37 3 -38 3 0 -55z m65 24 c0 -8 -10
-16 -22 -18 -18 -3 -23 2 -23 18 0 16 5 21 23 18 12 -2 22 -10 22 -18z"/>
<path d="M1140 121 c0 -14 -5 -18 -19 -14 -13 3 -23 -2 -30 -16 -16 -30 2 -61
34 -59 23 2 25 6 25 55 0 29 -2 53 -5 53 -3 0 -5 -9 -5 -19z m-6 -36 c7 -18
-2 -45 -15 -45 -13 0 -22 27 -15 45 3 8 10 15 15 15 5 0 11 -7 15 -15z"/>
<path d="M308 117 c-7 -22 7 -80 20 -83 7 -1 8 0 2 3 -12 6 -13 60 -1 65 5 2
3 8 -4 15 -10 9 -14 9 -17 0z"/>
<path d="M478 117 c-7 -22 7 -80 20 -83 7 -1 8 0 2 3 -12 6 -13 60 -1 65 5 2
3 8 -4 15 -10 9 -14 9 -17 0z"/>
<path d="M1199 119 c-8 -23 5 -82 19 -85 7 -1 8 0 2 3 -15 7 -12 63 3 63 19 0
40 -70 25 -87 -6 -8 -7 -13 -1 -13 6 0 19 25 30 55 12 30 18 55 14 55 -4 0
-12 -12 -18 -27 l-10 -28 -8 28 c-4 17 -14 27 -25 27 -10 0 -20 5 -22 12 -3 8
-6 7 -9 -3z"/>
<path d="M163 75 c2 -36 5 -40 30 -41 25 -1 27 1 26 40 -1 42 -3 41 -13 -7 -9
-37 -29 -30 -38 14 -6 34 -6 34 -5 -6z"/>
<path d="M247 103 c-13 -13 -7 -32 13 -38 27 -9 26 -29 -1 -22 -16 4 -19 3
-11 -5 14 -14 42 -3 42 16 0 8 -9 18 -20 21 -11 3 -20 11 -20 16 0 6 9 7 21 4
15 -5 19 -4 15 4 -8 12 -29 15 -39 4z"/>
<path d="M351 66 c2 -34 3 -36 6 -11 3 17 9 35 14 41 5 7 3 11 -6 11 -11 0
-15 -11 -14 -41z"/>
<path d="M404 99 c-4 -7 0 -9 13 -5 17 5 20 2 21 -24 0 -21 -4 -30 -15 -30 -9
0 -13 6 -9 15 3 8 1 15 -4 15 -6 0 -10 -9 -10 -20 0 -16 6 -20 30 -18 24 2 30
7 30 24 0 12 -3 29 -6 38 -7 18 -39 21 -50 5z"/>
<path d="M524 96 c-12 -31 0 -61 25 -61 13 0 27 7 29 15 4 13 3 13 -11 2 -9
-8 -21 -11 -27 -7 -19 11 -10 25 16 25 19 0 25 5 22 18 -4 22 -46 29 -54 8z
m41 -6 c3 -5 -3 -10 -15 -10 -12 0 -18 5 -15 10 3 6 10 10 15 10 5 0 12 -4 15
-10z"/>
<path d="M805 69 c11 -31 12 -45 4 -55 -7 -8 -7 -14 -2 -14 6 0 19 25 30 55
12 30 17 55 13 55 -4 0 -11 -12 -15 -27 l-8 -28 -10 28 c-17 44 -28 31 -12
-14z"/>
<path d="M1013 75 c2 -36 5 -40 30 -41 25 -1 27 1 26 40 -1 42 -3 41 -13 -7
-9 -37 -29 -30 -38 14 -6 34 -6 34 -5 -6z"/>
<path d="M1173 70 c0 -25 2 -35 4 -22 2 12 2 32 0 45 -2 12 -4 2 -4 -23z"/>
<path d="M1314 99 c-4 -7 0 -9 13 -5 17 5 20 2 21 -24 0 -21 -4 -30 -15 -30
-9 0 -13 6 -9 15 3 8 1 15 -4 15 -6 0 -10 -9 -10 -20 0 -16 6 -20 30 -18 24 2
30 7 30 24 0 12 -3 29 -6 38 -7 18 -39 21 -50 5z"/>
<path d="M1397 103 c-13 -13 -7 -32 13 -38 27 -9 26 -29 -1 -22 -16 4 -19 3
-11 -5 14 -14 42 -3 42 16 0 8 -9 18 -20 21 -11 3 -20 11 -20 16 0 6 9 7 21 4
15 -5 19 -4 15 4 -8 12 -29 15 -39 4z"/>
</g>
</svg>
